<mxfile host="app.diagrams.net" modified="2020-10-16T09:16:11.984Z" agent="5.0 (Windows NT 10.0; Win64; x64) AppleWebKit/537.36 (KHTML, like Gecko) Chrome/86.0.4240.75 Safari/537.36" etag="cHhViIfPY5q_iDXcyuIv" version="13.8.0" type="github" pages="4">
  <diagram id="jTR_NLwFGMDgaLPrDSDS" name="Context">
    <mxGraphModel dx="782" dy="1575" grid="1" gridSize="10" guides="1" tooltips="1" connect="1" arrows="1" fold="1" page="1" pageScale="1" pageWidth="850" pageHeight="1100" math="0" shadow="0">
      <root>
        <mxCell id="0" />
        <mxCell id="1" parent="0" />
        <mxCell id="pegHJdYjF_8ZTlbZZqun-1" value="" style="rounded=0;whiteSpace=wrap;html=1;" parent="1" vertex="1">
          <mxGeometry y="-1040" width="750" height="520" as="geometry" />
        </mxCell>
        <mxCell id="EMp3gAgEM7GU36I4W8t7-2" value="&lt;font face=&quot;Verdana&quot;&gt;&lt;b&gt;Excellentia Admin&lt;/b&gt;&lt;br&gt;&lt;/font&gt;&lt;div&gt;&lt;font face=&quot;Verdana&quot;&gt;[Person]&lt;/font&gt;&lt;/div&gt;&lt;font face=&quot;Verdana&quot;&gt;&lt;br&gt;&lt;/font&gt;&lt;div&gt;&lt;font face=&quot;Verdana&quot;&gt;From BD International &lt;br&gt;Team&lt;/font&gt;&lt;/div&gt;" style="html=1;dashed=0;whitespace=wrap;fillColor=#DAE8FC;strokeColor=#6C8EBF;shape=mxgraph.c4.person;align=center;points=[[0.5,0,0],[1,0.5,0],[1,0.75,0],[0.75,1,0],[0.5,1,0],[0.25,1,0],[0,0.75,0],[0,0.5,0]];" parent="1" vertex="1">
          <mxGeometry x="30" y="-980" width="140" height="140" as="geometry" />
        </mxCell>
        <mxCell id="EMp3gAgEM7GU36I4W8t7-8" value="&lt;h2&gt;&lt;span style=&quot;font-weight: normal&quot;&gt;&lt;font face=&quot;Verdana&quot;&gt;Level 1&lt;/font&gt;&lt;/span&gt;&lt;/h2&gt;" style="text;html=1;strokeColor=none;fillColor=none;align=center;verticalAlign=middle;whiteSpace=wrap;rounded=0;" parent="1" vertex="1">
          <mxGeometry x="329" y="-570" width="90" height="20" as="geometry" />
        </mxCell>
        <mxCell id="EMp3gAgEM7GU36I4W8t7-11" value="&lt;h1&gt;&lt;span style=&quot;font-weight: normal&quot;&gt;&lt;font face=&quot;Verdana&quot;&gt;Context&lt;/font&gt;&lt;/span&gt;&lt;/h1&gt;" style="text;html=1;strokeColor=none;fillColor=none;align=center;verticalAlign=middle;whiteSpace=wrap;rounded=0;" parent="1" vertex="1">
          <mxGeometry x="354" y="-550" width="40" height="20" as="geometry" />
        </mxCell>
        <mxCell id="EMp3gAgEM7GU36I4W8t7-13" value="&lt;b&gt;&lt;font face=&quot;Verdana&quot;&gt;Web Application&lt;/font&gt;&lt;/b&gt;&lt;div&gt;&lt;b&gt;&lt;font face=&quot;Verdana&quot;&gt;[Excellentia Dashboard]&lt;/font&gt;&lt;/b&gt;&lt;/div&gt;&lt;font face=&quot;Verdana&quot;&gt;&lt;br&gt;&lt;/font&gt;&lt;div&gt;&lt;font face=&quot;Verdana&quot;&gt;View for Revenue Growth, Milestone Growth and Resource AWARDS&amp;nbsp;&lt;/font&gt;&lt;/div&gt;" style="rounded=1;whiteSpace=wrap;html=1;labelBackgroundColor=none;fillColor=#dae8fc;align=center;arcSize=10;strokeColor=#31D446;points=[[0.25,0,0],[0.5,0,0],[0.75,0,0],[1,0.25,0],[1,0.5,0],[1,0.75,0],[0.75,1,0],[0.5,1,0],[0.25,1,0],[0,0.75,0],[0,0.5,0],[0,0.25,0]];strokeWidth=3;" parent="1" vertex="1">
          <mxGeometry x="290" y="-840" width="170" height="120" as="geometry" />
        </mxCell>
        <mxCell id="EMp3gAgEM7GU36I4W8t7-15" value="&lt;div style=&quot;text-align: left&quot;&gt;&lt;div style=&quot;text-align: center&quot;&gt;&lt;b&gt;&lt;font face=&quot;Verdana&quot;&gt;Employee UI&lt;/font&gt;&lt;/b&gt;&lt;/div&gt;&lt;div style=&quot;text-align: center&quot;&gt;&lt;font face=&quot;Verdana&quot;&gt;[TallyHub]&lt;/font&gt;&lt;/div&gt;&lt;/div&gt;" style="edgeStyle=none;rounded=0;html=1;entryX=0;entryY=0.5;jettySize=auto;orthogonalLoop=1;strokeColor=#A8A8A8;strokeWidth=2;fontColor=#000000;jumpStyle=none;dashed=1;entryDx=0;entryDy=0;entryPerimeter=0;exitX=1.005;exitY=0.7;exitDx=0;exitDy=0;exitPerimeter=0;" parent="1" source="EMp3gAgEM7GU36I4W8t7-2" target="EMp3gAgEM7GU36I4W8t7-13" edge="1">
          <mxGeometry width="200" relative="1" as="geometry">
            <mxPoint x="199" y="-905" as="sourcePoint" />
            <mxPoint x="420" y="-950" as="targetPoint" />
            <Array as="points" />
          </mxGeometry>
        </mxCell>
        <mxCell id="EMp3gAgEM7GU36I4W8t7-24" value="" style="endArrow=classic;html=1;entryX=1;entryY=1;entryDx=0;entryDy=0;exitX=0.984;exitY=0.964;exitDx=0;exitDy=0;exitPerimeter=0;strokeWidth=4;strokeColor=#31D446;" parent="1" source="EMp3gAgEM7GU36I4W8t7-13" target="pegHJdYjF_8ZTlbZZqun-1" edge="1">
          <mxGeometry width="50" height="50" relative="1" as="geometry">
            <mxPoint x="425" y="-640" as="sourcePoint" />
            <mxPoint x="475" y="-690" as="targetPoint" />
          </mxGeometry>
        </mxCell>
        <mxCell id="EMp3gAgEM7GU36I4W8t7-25" value="Zoom In" style="text;html=1;strokeColor=none;fillColor=none;align=center;verticalAlign=middle;whiteSpace=wrap;rounded=0;opacity=10;fontFamily=Verdana;fontColor=#31D446;fontStyle=0;fontSize=14;" parent="1" vertex="1">
          <mxGeometry x="600" y="-650" width="70" height="20" as="geometry" />
        </mxCell>
      </root>
    </mxGraphModel>
  </diagram>
  <diagram name="Container" id="5Oj0kr009Dtl0CGqbUO9">
    <mxGraphModel dx="1632" dy="2675" grid="1" gridSize="10" guides="1" tooltips="1" connect="1" arrows="1" fold="1" page="1" pageScale="1" pageWidth="850" pageHeight="1100" math="0" shadow="0">
      <root>
        <mxCell id="BS64bJ5C6z9YcA0vG9cJ-0" />
        <mxCell id="BS64bJ5C6z9YcA0vG9cJ-1" parent="BS64bJ5C6z9YcA0vG9cJ-0" />
        <mxCell id="BS64bJ5C6z9YcA0vG9cJ-2" value="" style="rounded=0;whiteSpace=wrap;html=1;" parent="BS64bJ5C6z9YcA0vG9cJ-1" vertex="1">
          <mxGeometry x="-400" y="-1580" width="800" height="580" as="geometry" />
        </mxCell>
        <mxCell id="wN6JBJyA1JOstgFszj5_-0" value="" style="endArrow=classic;html=1;exitX=0.984;exitY=0.964;exitDx=0;exitDy=0;exitPerimeter=0;strokeWidth=4;strokeColor=#31D446;" parent="BS64bJ5C6z9YcA0vG9cJ-1" edge="1">
          <mxGeometry width="50" height="50" relative="1" as="geometry">
            <mxPoint x="-400" y="-1580" as="sourcePoint" />
            <mxPoint x="-290" y="-1480" as="targetPoint" />
          </mxGeometry>
        </mxCell>
        <mxCell id="jhlWW2_R9ukkRFyDt__r-1" style="edgeStyle=orthogonalEdgeStyle;rounded=0;orthogonalLoop=1;jettySize=auto;html=1;entryX=0.5;entryY=0;entryDx=0;entryDy=0;entryPerimeter=0;strokeColor=#010301;strokeWidth=1;fontFamily=Verdana;fontSize=14;fontColor=#000000;" parent="BS64bJ5C6z9YcA0vG9cJ-1" source="wN6JBJyA1JOstgFszj5_-1" target="wN6JBJyA1JOstgFszj5_-3" edge="1">
          <mxGeometry relative="1" as="geometry" />
        </mxCell>
        <mxCell id="wN6JBJyA1JOstgFszj5_-1" value="&lt;font face=&quot;Verdana&quot; style=&quot;font-size: 12px&quot;&gt;&lt;b&gt;Excellentia Admin&lt;/b&gt;&lt;br&gt;&lt;/font&gt;&lt;div style=&quot;font-family: &amp;#34;helvetica&amp;#34; ; font-size: 12px&quot;&gt;&lt;font face=&quot;Verdana&quot;&gt;[Person]&lt;/font&gt;&lt;/div&gt;&lt;font face=&quot;Verdana&quot; style=&quot;font-size: 12px&quot;&gt;&lt;br&gt;&lt;/font&gt;&lt;div style=&quot;font-family: &amp;#34;helvetica&amp;#34; ; font-size: 12px&quot;&gt;&lt;font face=&quot;Verdana&quot;&gt;From BD International&amp;nbsp;&lt;br&gt;Team&lt;/font&gt;&lt;/div&gt;" style="html=1;dashed=0;whitespace=wrap;fillColor=#DAE8FC;strokeColor=#6C8EBF;shape=mxgraph.c4.person;align=center;points=[[0.5,0,0],[1,0.5,0],[1,0.75,0],[0.75,1,0],[0.5,1,0],[0.25,1,0],[0,0.75,0],[0,0.5,0]];shadow=1;fontFamily=Verdana;fontSize=14;fontColor=#000000;" parent="BS64bJ5C6z9YcA0vG9cJ-1" vertex="1">
          <mxGeometry x="-76.25" y="-1580" width="152.5" height="110" as="geometry" />
        </mxCell>
        <mxCell id="qh0mfUfsq9bQaFE9_BaY-0" style="edgeStyle=orthogonalEdgeStyle;rounded=0;orthogonalLoop=1;jettySize=auto;html=1;exitX=0;exitY=0.5;exitDx=0;exitDy=0;exitPerimeter=0;entryX=1;entryY=0.5;entryDx=0;entryDy=0;entryPerimeter=0;strokeColor=#010301;strokeWidth=1;fontFamily=Verdana;fontSize=14;fontColor=#000000;" parent="BS64bJ5C6z9YcA0vG9cJ-1" source="wN6JBJyA1JOstgFszj5_-2" target="z8GKE0vrghaRURBxhLd--0" edge="1">
          <mxGeometry relative="1" as="geometry" />
        </mxCell>
        <mxCell id="wN6JBJyA1JOstgFszj5_-2" value="&lt;span&gt;&lt;b&gt;CRON To Update &lt;br&gt;Aggregation Tables&lt;br&gt;&lt;/b&gt;&lt;/span&gt;&lt;br&gt;&lt;div&gt;Description&lt;/div&gt;" style="rounded=1;whiteSpace=wrap;html=1;labelBackgroundColor=none;fillColor=#dae8fc;fontColor=#000000;align=center;arcSize=10;strokeColor=#FFD966;points=[[0.25,0,0],[0.5,0,0],[0.75,0,0],[1,0.25,0],[1,0.5,0],[1,0.75,0],[0.75,1,0],[0.5,1,0],[0.25,1,0],[0,0.75,0],[0,0.5,0],[0,0.25,0]];shadow=1;strokeWidth=3;" parent="BS64bJ5C6z9YcA0vG9cJ-1" vertex="1">
          <mxGeometry x="130" y="-1200" width="200" height="110" as="geometry" />
        </mxCell>
        <mxCell id="wN6JBJyA1JOstgFszj5_-3" value="&lt;b&gt;&lt;font face=&quot;Verdana&quot;&gt;Web Application&lt;/font&gt;&lt;/b&gt;&lt;div&gt;&lt;b&gt;&lt;font face=&quot;Verdana&quot;&gt;Excellentia Dashboard&lt;/font&gt;&lt;/b&gt;&lt;/div&gt;" style="rounded=1;whiteSpace=wrap;html=1;labelBackgroundColor=none;fillColor=#dae8fc;fontColor=#000000;align=center;arcSize=10;strokeColor=#6c8ebf;points=[[0.25,0,0],[0.5,0,0],[0.75,0,0],[1,0.25,0],[1,0.5,0],[1,0.75,0],[0.75,1,0],[0.5,1,0],[0.25,1,0],[0,0.75,0],[0,0.5,0],[0,0.25,0]];shadow=1;dashed=1;" parent="BS64bJ5C6z9YcA0vG9cJ-1" vertex="1">
          <mxGeometry x="-310" y="-1350" width="160" height="90" as="geometry" />
        </mxCell>
        <mxCell id="jhlWW2_R9ukkRFyDt__r-2" style="edgeStyle=orthogonalEdgeStyle;rounded=0;orthogonalLoop=1;jettySize=auto;html=1;entryX=0.5;entryY=1;entryDx=0;entryDy=0;entryPerimeter=0;strokeColor=#010301;strokeWidth=1;fontFamily=Verdana;fontSize=14;fontColor=#000000;" parent="BS64bJ5C6z9YcA0vG9cJ-1" source="wN6JBJyA1JOstgFszj5_-4" target="wN6JBJyA1JOstgFszj5_-3" edge="1">
          <mxGeometry relative="1" as="geometry" />
        </mxCell>
        <mxCell id="wN6JBJyA1JOstgFszj5_-4" value="&lt;span&gt;Database&lt;br&gt;&lt;/span&gt;&lt;b&gt;Aggregation Tables&lt;/b&gt;&lt;br&gt;&lt;div&gt;&lt;br&gt;&lt;/div&gt;" style="shape=cylinder;whiteSpace=wrap;html=1;boundedLbl=1;rounded=0;labelBackgroundColor=none;fillColor=#dae8fc;fontSize=12;fontColor=#000000;align=center;strokeColor=#6c8ebf;points=[[0.5,0,0],[1,0.25,0],[1,0.5,0],[1,0.75,0],[0.5,1,0],[0,0.75,0],[0,0.5,0],[0,0.25,0]];shadow=1;dashed=1;" parent="BS64bJ5C6z9YcA0vG9cJ-1" vertex="1">
          <mxGeometry x="-295" y="-1190" width="130" height="90" as="geometry" />
        </mxCell>
        <mxCell id="ZqSfj0WcTqxGVMvEU7Fu-1" value="" style="line;strokeWidth=1;direction=south;html=1;shadow=1;fillColor=#FFD966;fontFamily=Verdana;fontSize=14;fontColor=#000000;dashed=1;" parent="BS64bJ5C6z9YcA0vG9cJ-1" vertex="1">
          <mxGeometry x="-360" y="-1430" width="10" height="370" as="geometry" />
        </mxCell>
        <mxCell id="ZqSfj0WcTqxGVMvEU7Fu-2" value="" style="line;strokeWidth=1;html=1;shadow=1;fillColor=#FFD966;fontFamily=Verdana;fontSize=14;fontColor=#000000;dashed=1;" parent="BS64bJ5C6z9YcA0vG9cJ-1" vertex="1">
          <mxGeometry x="-360" y="-1430" width="730" height="10" as="geometry" />
        </mxCell>
        <mxCell id="ZqSfj0WcTqxGVMvEU7Fu-3" value="" style="line;strokeWidth=1;direction=south;html=1;shadow=1;fillColor=#FFD966;fontFamily=Verdana;fontSize=14;fontColor=#000000;dashed=1;" parent="BS64bJ5C6z9YcA0vG9cJ-1" vertex="1">
          <mxGeometry x="360" y="-1430" width="10" height="370" as="geometry" />
        </mxCell>
        <mxCell id="ZqSfj0WcTqxGVMvEU7Fu-6" value="" style="line;strokeWidth=1;html=1;shadow=1;fillColor=#FFD966;fontFamily=Verdana;fontSize=14;fontColor=#000000;dashed=1;" parent="BS64bJ5C6z9YcA0vG9cJ-1" vertex="1">
          <mxGeometry x="-360" y="-1070" width="730" height="10" as="geometry" />
        </mxCell>
        <mxCell id="7oynTQ4wL4w9QhUxPnYk-0" value="" style="endArrow=classic;html=1;exitX=0;exitY=0;exitDx=0;exitDy=0;strokeWidth=4;strokeColor=#FFD966;entryX=0.077;entryY=0.667;entryDx=0;entryDy=0;entryPerimeter=0;" parent="BS64bJ5C6z9YcA0vG9cJ-1" edge="1">
          <mxGeometry width="50" height="50" relative="1" as="geometry">
            <mxPoint x="296.6700000000007" y="-1090.0000000000002" as="sourcePoint" />
            <mxPoint x="399.99999999999994" y="-1000.73" as="targetPoint" />
          </mxGeometry>
        </mxCell>
        <mxCell id="qh0mfUfsq9bQaFE9_BaY-1" style="edgeStyle=orthogonalEdgeStyle;rounded=0;orthogonalLoop=1;jettySize=auto;html=1;exitX=0;exitY=0.5;exitDx=0;exitDy=0;exitPerimeter=0;entryX=1;entryY=0.5;entryDx=0;entryDy=0;entryPerimeter=0;strokeColor=#010301;strokeWidth=1;fontFamily=Verdana;fontSize=14;fontColor=#000000;" parent="BS64bJ5C6z9YcA0vG9cJ-1" source="z8GKE0vrghaRURBxhLd--0" target="wN6JBJyA1JOstgFszj5_-4" edge="1">
          <mxGeometry relative="1" as="geometry" />
        </mxCell>
        <mxCell id="z8GKE0vrghaRURBxhLd--0" value="&lt;b&gt;DROOLS ENGINE&lt;br&gt;(Contains Business Rules)&lt;br&gt;Calculations for Sales, Leads and Resource Points&lt;br&gt;&lt;/b&gt;" style="rounded=1;whiteSpace=wrap;html=1;labelBackgroundColor=none;fillColor=#dae8fc;fontColor=#000000;align=center;arcSize=10;strokeColor=#6c8ebf;points=[[0.25,0,0],[0.5,0,0],[0.75,0,0],[1,0.25,0],[1,0.5,0],[1,0.75,0],[0.75,1,0],[0.5,1,0],[0.25,1,0],[0,0.75,0],[0,0.5,0],[0,0.25,0]];shadow=1;" parent="BS64bJ5C6z9YcA0vG9cJ-1" vertex="1">
          <mxGeometry x="-94.75" y="-1200" width="171" height="110" as="geometry" />
        </mxCell>
        <mxCell id="5hOi2BAd-Upy4ZmYCH0d-1" value="&lt;font color=&quot;#ffd966&quot;&gt;Zoom In&lt;/font&gt;" style="text;html=1;strokeColor=none;fillColor=none;align=center;verticalAlign=middle;whiteSpace=wrap;rounded=0;opacity=10;fontFamily=Verdana;fontColor=#31D446;fontStyle=0;fontSize=14;" parent="BS64bJ5C6z9YcA0vG9cJ-1" vertex="1">
          <mxGeometry x="290" y="-1040" width="70" height="20" as="geometry" />
        </mxCell>
        <mxCell id="2Bvkm5VaGbwEEFU3dqMP-0" value="&lt;font style=&quot;font-size: 12px&quot;&gt;Update&lt;/font&gt;" style="text;html=1;strokeColor=none;fillColor=none;align=center;verticalAlign=middle;whiteSpace=wrap;rounded=0;shadow=1;dashed=1;fontFamily=Verdana;fontSize=14;fontColor=#000000;" parent="BS64bJ5C6z9YcA0vG9cJ-1" vertex="1">
          <mxGeometry x="-150" y="-1170" width="50" height="20" as="geometry" />
        </mxCell>
        <mxCell id="wDjZtylrw31oVbb8cHTS-0" value="&lt;font style=&quot;font-size: 18px&quot;&gt;Level 2&lt;/font&gt;" style="text;html=1;strokeColor=none;fillColor=none;align=center;verticalAlign=middle;whiteSpace=wrap;rounded=0;shadow=1;dashed=1;fontFamily=Verdana;fontSize=14;fontColor=#000000;" parent="BS64bJ5C6z9YcA0vG9cJ-1" vertex="1">
          <mxGeometry x="-49.25" y="-1050" width="80" height="20" as="geometry" />
        </mxCell>
        <mxCell id="oPlr8wJpc24hX-kTHjey-0" value="&lt;font style=&quot;font-size: 24px&quot;&gt;Container&lt;/font&gt;" style="text;html=1;strokeColor=none;fillColor=none;align=center;verticalAlign=middle;whiteSpace=wrap;rounded=0;shadow=1;dashed=1;fontFamily=Verdana;fontSize=14;fontColor=#000000;" parent="BS64bJ5C6z9YcA0vG9cJ-1" vertex="1">
          <mxGeometry x="-54.25" y="-1030" width="90" height="20" as="geometry" />
        </mxCell>
      </root>
    </mxGraphModel>
  </diagram>
  <diagram name="Components" id="zVnL8_2Y5H9iWpnHiwae">
    <mxGraphModel dx="1632" dy="2675" grid="1" gridSize="10" guides="1" tooltips="1" connect="1" arrows="1" fold="1" page="1" pageScale="1" pageWidth="850" pageHeight="1100" math="0" shadow="0">
      <root>
        <mxCell id="ct_YPavWUK7EmgMuqAcY-0" />
        <mxCell id="ct_YPavWUK7EmgMuqAcY-1" parent="ct_YPavWUK7EmgMuqAcY-0" />
        <mxCell id="ct_YPavWUK7EmgMuqAcY-2" value="" style="rounded=0;whiteSpace=wrap;html=1;" parent="ct_YPavWUK7EmgMuqAcY-1" vertex="1">
          <mxGeometry y="-1100" width="840" height="620" as="geometry" />
        </mxCell>
        <mxCell id="ct_YPavWUK7EmgMuqAcY-4" value="&lt;h2&gt;&lt;span style=&quot;font-weight: normal&quot;&gt;&lt;font face=&quot;Verdana&quot;&gt;Level 3&lt;/font&gt;&lt;/span&gt;&lt;/h2&gt;" style="text;html=1;strokeColor=none;fillColor=none;align=center;verticalAlign=middle;whiteSpace=wrap;rounded=0;" parent="ct_YPavWUK7EmgMuqAcY-1" vertex="1">
          <mxGeometry x="380" y="-530" width="90" height="20" as="geometry" />
        </mxCell>
        <mxCell id="ct_YPavWUK7EmgMuqAcY-5" value="&lt;h1&gt;&lt;span style=&quot;font-weight: normal&quot;&gt;&lt;font face=&quot;Verdana&quot;&gt;Component&lt;/font&gt;&lt;/span&gt;&lt;/h1&gt;" style="text;html=1;strokeColor=none;fillColor=none;align=center;verticalAlign=middle;whiteSpace=wrap;rounded=0;" parent="ct_YPavWUK7EmgMuqAcY-1" vertex="1">
          <mxGeometry x="373" y="-500" width="105" as="geometry" />
        </mxCell>
        <mxCell id="yJbIqNUfBujaTxvO-I2s-8" style="edgeStyle=orthogonalEdgeStyle;rounded=0;orthogonalLoop=1;jettySize=auto;html=1;entryX=0;entryY=0.5;entryDx=0;entryDy=0;entryPerimeter=0;strokeColor=#010301;strokeWidth=1;fontFamily=Verdana;fontSize=14;fontColor=#000000;" parent="ct_YPavWUK7EmgMuqAcY-1" source="ct_YPavWUK7EmgMuqAcY-20" target="O63c2df_uErxugBmOyZz-27" edge="1">
          <mxGeometry relative="1" as="geometry">
            <Array as="points">
              <mxPoint x="425" y="-600" />
            </Array>
          </mxGeometry>
        </mxCell>
        <mxCell id="ct_YPavWUK7EmgMuqAcY-20" value="&lt;font face=&quot;Verdana&quot;&gt;&lt;b&gt;Drools&lt;br&gt;Business Rule Engine&lt;br&gt;&lt;/b&gt;&lt;/font&gt;&lt;div&gt;&lt;font style=&quot;font-size: 9px&quot; face=&quot;Verdana&quot;&gt;&lt;b&gt;For Calculating Sales, Leads and Resource Points&lt;/b&gt;&lt;/font&gt;&lt;/div&gt;" style="rounded=1;whiteSpace=wrap;html=1;labelBackgroundColor=none;fillColor=#dae8fc;fontColor=#000000;align=center;arcSize=10;strokeColor=#6c8ebf;points=[[0.25,0,0],[0.5,0,0],[0.75,0,0],[1,0.25,0],[1,0.5,0],[1,0.75,0],[0.75,1,0],[0.5,1,0],[0.25,1,0],[0,0.75,0],[0,0.5,0],[0,0.25,0]];shadow=1;" parent="ct_YPavWUK7EmgMuqAcY-1" vertex="1">
          <mxGeometry x="345" y="-750" width="160" height="100" as="geometry" />
        </mxCell>
        <mxCell id="O63c2df_uErxugBmOyZz-24" style="edgeStyle=orthogonalEdgeStyle;rounded=0;orthogonalLoop=1;jettySize=auto;html=1;entryX=0.5;entryY=0;entryDx=0;entryDy=0;entryPerimeter=0;strokeColor=#010301;strokeWidth=1;fontFamily=Verdana;fontSize=14;fontColor=#000000;" parent="ct_YPavWUK7EmgMuqAcY-1" source="ct_YPavWUK7EmgMuqAcY-23" target="ct_YPavWUK7EmgMuqAcY-20" edge="1">
          <mxGeometry relative="1" as="geometry" />
        </mxCell>
        <mxCell id="ct_YPavWUK7EmgMuqAcY-23" value="&lt;font face=&quot;Verdana&quot;&gt;&lt;span&gt;&lt;b&gt;Leads Configurations&lt;br&gt;&lt;/b&gt;&lt;/span&gt;&lt;br&gt;&lt;/font&gt;&lt;div&gt;&lt;span style=&quot;font-family: &amp;#34;verdana&amp;#34;&quot;&gt;Description&lt;/span&gt;&lt;br&gt;&lt;/div&gt;" style="rounded=1;whiteSpace=wrap;html=1;labelBackgroundColor=none;fillColor=#dae8fc;fontColor=#000000;align=center;arcSize=10;strokeColor=#6c8ebf;points=[[0.25,0,0],[0.5,0,0],[0.75,0,0],[1,0.25,0],[1,0.5,0],[1,0.75,0],[0.75,1,0],[0.5,1,0],[0.25,1,0],[0,0.75,0],[0,0.5,0],[0,0.25,0]];shadow=1;" parent="ct_YPavWUK7EmgMuqAcY-1" vertex="1">
          <mxGeometry x="345" y="-900" width="160" height="100" as="geometry" />
        </mxCell>
        <mxCell id="O63c2df_uErxugBmOyZz-22" style="edgeStyle=orthogonalEdgeStyle;rounded=0;orthogonalLoop=1;jettySize=auto;html=1;entryX=0;entryY=0.5;entryDx=0;entryDy=0;entryPerimeter=0;strokeColor=#010301;strokeWidth=1;fontFamily=Verdana;fontSize=14;fontColor=#000000;" parent="ct_YPavWUK7EmgMuqAcY-1" source="O63c2df_uErxugBmOyZz-3" target="ct_YPavWUK7EmgMuqAcY-20" edge="1">
          <mxGeometry relative="1" as="geometry" />
        </mxCell>
        <mxCell id="O63c2df_uErxugBmOyZz-3" value="&lt;font face=&quot;Verdana&quot;&gt;&lt;span&gt;&lt;b&gt;Sales Configurations&lt;br&gt;&lt;/b&gt;&lt;/span&gt;&lt;br&gt;&lt;/font&gt;&lt;div&gt;&lt;span style=&quot;font-family: &amp;#34;verdana&amp;#34;&quot;&gt;Description&lt;/span&gt;&lt;br&gt;&lt;/div&gt;" style="rounded=1;whiteSpace=wrap;html=1;labelBackgroundColor=none;fillColor=#dae8fc;fontColor=#000000;align=center;arcSize=10;strokeColor=#6c8ebf;points=[[0.25,0,0],[0.5,0,0],[0.75,0,0],[1,0.25,0],[1,0.5,0],[1,0.75,0],[0.75,1,0],[0.5,1,0],[0.25,1,0],[0,0.75,0],[0,0.5,0],[0,0.25,0]];shadow=1;" parent="ct_YPavWUK7EmgMuqAcY-1" vertex="1">
          <mxGeometry x="130" y="-900" width="160" height="100" as="geometry" />
        </mxCell>
        <mxCell id="O63c2df_uErxugBmOyZz-16" style="edgeStyle=orthogonalEdgeStyle;rounded=0;orthogonalLoop=1;jettySize=auto;html=1;exitX=0.5;exitY=1;exitDx=0;exitDy=0;exitPerimeter=0;entryX=0.5;entryY=0;entryDx=0;entryDy=0;entryPerimeter=0;strokeColor=#010301;strokeWidth=1;fontFamily=Verdana;fontSize=14;fontColor=#000000;" parent="ct_YPavWUK7EmgMuqAcY-1" source="O63c2df_uErxugBmOyZz-4" target="O63c2df_uErxugBmOyZz-3" edge="1">
          <mxGeometry relative="1" as="geometry" />
        </mxCell>
        <mxCell id="O63c2df_uErxugBmOyZz-4" value="&lt;font face=&quot;Verdana&quot;&gt;&lt;span&gt;&lt;b&gt;Partner-Resource Sales Details&lt;br&gt;&lt;/b&gt;&lt;/span&gt;&lt;br&gt;&lt;/font&gt;&lt;div&gt;&lt;font face=&quot;Verdana&quot;&gt;Description&lt;/font&gt;&lt;/div&gt;" style="rounded=1;whiteSpace=wrap;html=1;labelBackgroundColor=none;fillColor=#dae8fc;fontColor=#000000;align=center;arcSize=10;strokeColor=#6c8ebf;points=[[0.25,0,0],[0.5,0,0],[0.75,0,0],[1,0.25,0],[1,0.5,0],[1,0.75,0],[0.75,1,0],[0.5,1,0],[0.25,1,0],[0,0.75,0],[0,0.5,0],[0,0.25,0]];shadow=1;" parent="ct_YPavWUK7EmgMuqAcY-1" vertex="1">
          <mxGeometry x="130" y="-1040" width="160" height="100" as="geometry" />
        </mxCell>
        <mxCell id="O63c2df_uErxugBmOyZz-17" style="edgeStyle=orthogonalEdgeStyle;rounded=0;orthogonalLoop=1;jettySize=auto;html=1;exitX=0.5;exitY=1;exitDx=0;exitDy=0;exitPerimeter=0;entryX=0.5;entryY=0;entryDx=0;entryDy=0;entryPerimeter=0;strokeColor=#010301;strokeWidth=1;fontFamily=Verdana;fontSize=14;fontColor=#000000;" parent="ct_YPavWUK7EmgMuqAcY-1" source="O63c2df_uErxugBmOyZz-5" target="ct_YPavWUK7EmgMuqAcY-23" edge="1">
          <mxGeometry relative="1" as="geometry" />
        </mxCell>
        <mxCell id="O63c2df_uErxugBmOyZz-5" value="&lt;font face=&quot;Verdana&quot;&gt;&lt;b&gt;Partner-Resource Lead&lt;br&gt;Details&lt;br&gt;&lt;/b&gt;&lt;/font&gt;&lt;br&gt;&lt;div&gt;&lt;font face=&quot;Verdana&quot;&gt;Description&lt;/font&gt;&lt;/div&gt;" style="rounded=1;whiteSpace=wrap;html=1;labelBackgroundColor=none;fillColor=#dae8fc;fontColor=#000000;align=center;arcSize=10;strokeColor=#6c8ebf;points=[[0.25,0,0],[0.5,0,0],[0.75,0,0],[1,0.25,0],[1,0.5,0],[1,0.75,0],[0.75,1,0],[0.5,1,0],[0.25,1,0],[0,0.75,0],[0,0.5,0],[0,0.25,0]];shadow=1;" parent="ct_YPavWUK7EmgMuqAcY-1" vertex="1">
          <mxGeometry x="345" y="-1040" width="160" height="100" as="geometry" />
        </mxCell>
        <mxCell id="O63c2df_uErxugBmOyZz-25" style="edgeStyle=orthogonalEdgeStyle;rounded=0;orthogonalLoop=1;jettySize=auto;html=1;entryX=1;entryY=0.5;entryDx=0;entryDy=0;entryPerimeter=0;strokeColor=#010301;strokeWidth=1;fontFamily=Verdana;fontSize=14;fontColor=#000000;" parent="ct_YPavWUK7EmgMuqAcY-1" source="O63c2df_uErxugBmOyZz-6" target="ct_YPavWUK7EmgMuqAcY-20" edge="1">
          <mxGeometry relative="1" as="geometry" />
        </mxCell>
        <mxCell id="O63c2df_uErxugBmOyZz-6" value="&lt;font face=&quot;Verdana&quot;&gt;&lt;span&gt;&lt;b&gt;Points Configurations&lt;br&gt;&lt;/b&gt;&lt;/span&gt;&lt;/font&gt;&lt;font face=&quot;Verdana&quot;&gt;&lt;br&gt;&lt;/font&gt;&lt;div&gt;&lt;font face=&quot;Verdana&quot;&gt;Description&lt;/font&gt;&lt;/div&gt;" style="rounded=1;whiteSpace=wrap;html=1;labelBackgroundColor=none;fillColor=#dae8fc;fontColor=#000000;align=center;arcSize=10;strokeColor=#6c8ebf;points=[[0.25,0,0],[0.5,0,0],[0.75,0,0],[1,0.25,0],[1,0.5,0],[1,0.75,0],[0.75,1,0],[0.5,1,0],[0.25,1,0],[0,0.75,0],[0,0.5,0],[0,0.25,0]];shadow=1;" parent="ct_YPavWUK7EmgMuqAcY-1" vertex="1">
          <mxGeometry x="560" y="-900" width="160" height="100" as="geometry" />
        </mxCell>
        <mxCell id="O63c2df_uErxugBmOyZz-18" style="edgeStyle=orthogonalEdgeStyle;rounded=0;orthogonalLoop=1;jettySize=auto;html=1;exitX=0.5;exitY=1;exitDx=0;exitDy=0;exitPerimeter=0;entryX=0.5;entryY=0;entryDx=0;entryDy=0;entryPerimeter=0;strokeColor=#010301;strokeWidth=1;fontFamily=Verdana;fontSize=14;fontColor=#000000;" parent="ct_YPavWUK7EmgMuqAcY-1" source="O63c2df_uErxugBmOyZz-7" target="O63c2df_uErxugBmOyZz-6" edge="1">
          <mxGeometry relative="1" as="geometry" />
        </mxCell>
        <mxCell id="O63c2df_uErxugBmOyZz-7" value="&lt;font face=&quot;Verdana&quot;&gt;&lt;span&gt;&lt;b&gt;Lead Configuration Controller&lt;br&gt;&lt;/b&gt;&lt;/span&gt;&lt;/font&gt;&lt;font face=&quot;Verdana&quot;&gt;&lt;br&gt;&lt;/font&gt;&lt;div&gt;&lt;font face=&quot;Verdana&quot;&gt;Description&lt;/font&gt;&lt;/div&gt;" style="rounded=1;whiteSpace=wrap;html=1;labelBackgroundColor=none;fillColor=#dae8fc;fontColor=#000000;align=center;arcSize=10;strokeColor=#6c8ebf;points=[[0.25,0,0],[0.5,0,0],[0.75,0,0],[1,0.25,0],[1,0.5,0],[1,0.75,0],[0.75,1,0],[0.5,1,0],[0.25,1,0],[0,0.75,0],[0,0.5,0],[0,0.25,0]];shadow=1;" parent="ct_YPavWUK7EmgMuqAcY-1" vertex="1">
          <mxGeometry x="560" y="-1040" width="160" height="100" as="geometry" />
        </mxCell>
        <mxCell id="O63c2df_uErxugBmOyZz-26" value="&lt;b&gt;&lt;font color=&quot;#ffd966&quot;&gt;CRON to Update Aggregation Tables&lt;/font&gt;&lt;/b&gt;" style="text;html=1;strokeColor=none;fillColor=none;align=left;verticalAlign=middle;whiteSpace=wrap;rounded=0;shadow=1;dashed=1;fontFamily=Verdana;fontSize=14;fontColor=#000000;" parent="ct_YPavWUK7EmgMuqAcY-1" vertex="1">
          <mxGeometry x="65" y="-1080" width="290" height="20" as="geometry" />
        </mxCell>
        <mxCell id="O63c2df_uErxugBmOyZz-27" value="&lt;span&gt;&lt;font face=&quot;Verdana&quot;&gt;Database&lt;/font&gt;&lt;/span&gt;&lt;div&gt;&lt;font face=&quot;Verdana&quot;&gt;Aggregation Tables&lt;/font&gt;&lt;/div&gt;&lt;div&gt;&lt;font face=&quot;Verdana&quot;&gt;Sales, Leads and Points Tables&lt;/font&gt;&lt;/div&gt;" style="shape=cylinder;whiteSpace=wrap;html=1;boundedLbl=1;rounded=0;labelBackgroundColor=none;fillColor=#dae8fc;fontSize=12;fontColor=#000000;align=center;strokeColor=#6c8ebf;points=[[0.5,0,0],[1,0.25,0],[1,0.5,0],[1,0.75,0],[0.5,1,0],[0,0.75,0],[0,0.5,0],[0,0.25,0]];shadow=1;dashed=1;" parent="ct_YPavWUK7EmgMuqAcY-1" vertex="1">
          <mxGeometry x="590" y="-650" width="120" height="100" as="geometry" />
        </mxCell>
        <mxCell id="yJbIqNUfBujaTxvO-I2s-0" value="" style="endArrow=classic;html=1;exitX=0;exitY=0;exitDx=0;exitDy=0;strokeWidth=4;strokeColor=#FFD966;entryX=0.077;entryY=0.667;entryDx=0;entryDy=0;entryPerimeter=0;" parent="ct_YPavWUK7EmgMuqAcY-1" source="ct_YPavWUK7EmgMuqAcY-2" edge="1">
          <mxGeometry width="50" height="50" relative="1" as="geometry">
            <mxPoint x="10" y="-1100" as="sourcePoint" />
            <mxPoint x="103.32999999999993" y="-1010.73" as="targetPoint" />
          </mxGeometry>
        </mxCell>
      </root>
    </mxGraphModel>
  </diagram>
  <diagram id="mO745QlpSvBQjOlybDwu" name="Page-4">
    <mxGraphModel dx="782" dy="475" grid="1" gridSize="10" guides="1" tooltips="1" connect="1" arrows="1" fold="1" page="1" pageScale="1" pageWidth="850" pageHeight="1100" math="0" shadow="0">
      <root>
        <mxCell id="ho14q4suTNqjK7OWpWni-0" />
        <mxCell id="ho14q4suTNqjK7OWpWni-1" parent="ho14q4suTNqjK7OWpWni-0" />
      </root>
    </mxGraphModel>
  </diagram>
</mxfile>
